<?xml version="1.0" standalone="no"?>
<!DOCTYPE svg PUBLIC "-//W3C//DTD SVG 20010904//EN"
 "http://www.w3.org/TR/2001/REC-SVG-20010904/DTD/svg10.dtd">
<svg version="1.0" xmlns="http://www.w3.org/2000/svg"
 width="560.000000pt" height="560.000000pt" viewBox="0 0 560.000000 560.000000"
 preserveAspectRatio="xMidYMid meet">
<metadata>
Created by potrace 1.14, written by Peter Selinger 2001-2017
</metadata>
<g transform="translate(0.000000,560.000000) scale(0.100000,-0.100000)"
fill="#000000" stroke="none">
<path d="M223 4966 c-142 -46 -231 -174 -220 -317 10 -127 -24 -89 889 -1003
461 -462 838 -842 838 -846 0 -4 -377 -384 -838 -846 -659 -660 -843 -850
-862 -889 -34 -69 -34 -199 -1 -263 33 -65 87 -118 149 -149 47 -23 70 -28
132 -28 144 1 73 -61 1154 1021 1081 1081 1020 1012 1021 1154 0 139 58 74
-1022 1155 -814 815 -975 972 -1019 992 -65 29 -163 38 -221 19z m145 -190
c29 -16 1889 -1875 1916 -1916 21 -31 21 -89 0 -120 -27 -41 -1887 -1900
-1916 -1916 -63 -33 -139 -7 -168 57 -31 72 -19 95 137 251 76 77 481 483 901
904 l764 764 -901 901 c-663 664 -903 910 -909 933 -28 104 82 192 176 142z"/>
<path d="M2417 1234 c-102 -26 -181 -96 -217 -191 -17 -46 -21 -73 -18 -129 8
-120 70 -212 178 -263 l55 -26 1475 0 1475 0 53 24 c66 30 134 104 161 176 65
174 -45 376 -224 411 -66 13 -2888 11 -2938 -2z m2909 -185 c71 -22 105 -98
74 -168 -36 -79 91 -73 -1511 -73 -1162 1 -1433 3 -1455 14 -89 43 -90 178 -2
218 36 16 131 17 1451 18 865 0 1424 -3 1443 -9z"/>
</g>
</svg>
